<svg xmlns="http://www.w3.org/2000/svg" xmlns:xlink="http://www.w3.org/1999/xlink" viewBox="0,0,256,256" width="80px" height="80px"><g fill="none" fill-rule="nonzero" stroke="none" stroke-width="1" stroke-linecap="butt" stroke-linejoin="miter" stroke-miterlimit="10" stroke-dasharray="" stroke-dashoffset="0" font-family="none" font-weight="none" font-size="none" text-anchor="none" style="mix-blend-mode: normal"><g transform="scale(6.4,6.4)"><path d="M10.747,39.5l7,-17h-9.015l8.609,-22h13.826l-8,15h8.727l-21.12,24z" fill="#95d8ff"></path><path d="M30.333,1l-7.216,13.529l-0.784,1.471h1.667h6.788l-18.463,20.981l5.6,-13.6l0.568,-1.381h-1.493h-7.535l8.217,-21h12.651M32,0h-15l-9,23h9l-7,17h1l22,-25h-9l8,-15z" fill="#5399c2"></path><path d="M18.607,1.37l0.011,-0.027l0.009,-0.028l0.105,-0.315h-1.054l-8.203,21h1.077zM18.493,22l-0.568,1.381l-5.6,13.6l2.032,-2.309l4.492,-10.911l0.569,-1.38l0.157,-0.381z" fill="#ffffff"></path></g></g></svg>